
    <svg width="40" height="40" viewBox="0 0 40 40" fill="none" xmlns="http://www.w3.org/2000/svg">
<path d="M0 20C0 8.95431 8.95431 0 20 0V0C31.0457 0 40 8.95431 40 20V20C40 31.0457 31.0457 40 20 40V40C8.95431 40 0 31.0457 0 20V20Z" fill="#1778F2"/>
<path d="M20.8409 30.3963C18.9403 30.3963 17.304 29.9659 15.9318 29.1051C14.5682 28.2358 13.5199 27.0384 12.7869 25.5128C12.054 23.9872 11.6875 22.2401 11.6875 20.2713C11.6875 18.277 12.0625 16.517 12.8125 14.9915C13.5625 13.4574 14.6193 12.2599 15.983 11.3991C17.3466 10.5384 18.9531 10.108 20.8026 10.108C22.294 10.108 23.6236 10.3849 24.7912 10.9389C25.9588 11.4844 26.9006 12.2514 27.6165 13.2401C28.3409 14.2287 28.7713 15.3835 28.9077 16.7045H25.1875C24.983 15.7841 24.5142 14.9915 23.7812 14.3267C23.0568 13.6619 22.0852 13.3295 20.8665 13.3295C19.8011 13.3295 18.8679 13.6108 18.0668 14.1733C17.2741 14.7273 16.6563 15.5199 16.2131 16.5511C15.7699 17.5739 15.5483 18.7841 15.5483 20.1818C15.5483 21.6136 15.7656 22.8494 16.2003 23.8892C16.6349 24.929 17.2486 25.7344 18.0412 26.3054C18.8423 26.8764 19.7841 27.1619 20.8665 27.1619C21.5909 27.1619 22.2472 27.0298 22.8352 26.7656C23.4318 26.4929 23.9304 26.1051 24.331 25.6023C24.7401 25.0994 25.0256 24.4943 25.1875 23.7869H28.9077C28.7713 25.0568 28.358 26.1903 27.6676 27.1875C26.9773 28.1847 26.0526 28.9687 24.8935 29.5398C23.7429 30.1108 22.392 30.3963 20.8409 30.3963Z" fill="white"/>
</svg>
